<svg xmlns="http://www.w3.org/2000/svg" viewBox="0 0 400 240">
  <rect width="400" height="240" fill="#eef3f9"/>
  <rect x="20" y="20" width="70" height="200" rx="8" fill="#fff" stroke="#c3d2e2" stroke-width="2"/>
  <rect x="35" y="40" width="20" height="20" rx="3" fill="#5b7a9d"/>
  <rect x="35" y="72" width="20" height="20" rx="3" fill="none" stroke="#9aa7b5" stroke-width="2"/>
  <circle cx="45" cy="114" r="10" fill="none" stroke="#9aa7b5" stroke-width="2"/>
  <polygon points="35,158 55,158 45,140" fill="none" stroke="#9aa7b5" stroke-width="2"/>
  <rect x="110" y="20" width="270" height="200" rx="8" fill="#fff" stroke="#c3d2e2" stroke-width="2"/>
  <circle cx="200" cy="80" r="24" fill="none" stroke="#9aa7b5" stroke-width="3"/>
  <rect x="255" y="120" width="60" height="60" fill="#5b7a9d" stroke="#3f5a78" stroke-width="2"/>
  <rect x="248" y="113" width="8" height="8" fill="#3f5a78"/>
  <rect x="314" y="113" width="8" height="8" fill="#3f5a78"/>
  <rect x="248" y="173" width="8" height="8" fill="#3f5a78"/>
  <rect x="314" y="173" width="8" height="8" fill="#3f5a78"/>
  <polygon points="150,180 190,180 170,140" fill="none" stroke="#9aa7b5" stroke-width="3"/>
</svg>
